
<?xml version="1.0" standalone="no"?>
<!DOCTYPE svg PUBLIC "-//W3C//DTD SVG 20010904//EN"
 "http://www.w3.org/TR/2001/REC-SVG-20010904/DTD/svg10.dtd">
<svg version="1.0" xmlns="http://www.w3.org/2000/svg"
 width="512.000000pt" height="512.000000pt" viewBox="0 0 512.000000 512.000000"
 preserveAspectRatio="xMidYMid meet">

<g transform="translate(0.000000,512.000000) scale(0.100000,-0.100000)"
fill="#000000" stroke="none">
<path d="M2360 5114 c-626 -57 -1181 -313 -1611 -743 -395 -396 -638 -883
-726 -1458 -23 -154 -24 -546 0 -703 86 -572 332 -1068 726 -1460 399 -398
880 -637 1461 -727 159 -24 537 -24 700 0 572 85 1067 332 1460 726 398 399
637 881 727 1461 25 161 25 539 0 700 -90 580 -331 1065 -726 1461 -395 395
-889 641 -1453 725 -99 14 -466 26 -558 18z m1020 -1248 c181 -59 305 -184
366 -366 27 -82 27 -313 0 -353 -40 -59 -138 -77 -191 -35 -42 33 -55 76 -56
190 0 57 -6 117 -12 135 -22 60 -72 117 -128 148 l-54 30 -740 0 -740 0 -41
-22 c-22 -12 -57 -40 -78 -63 -73 -81 -70 -64 -76 -570 -5 -494 -4 -485 -63
-520 -61 -38 -140 -18 -177 43 -19 30 -20 53 -20 487 0 498 2 515 59 628 77
151 229 259 396 282 33 4 384 7 780 6 665 -2 724 -3 775 -20z m-378 -553 c84
-40 151 -107 192 -193 31 -64 31 -67 34 -247 l3 -183 67 0 c202 0 343 -74 420
-218 49 -92 54 -143 50 -497 -3 -314 -4 -321 -29 -391 -67 -185 -220 -319
-404 -354 -42 -8 -279 -10 -800 -8 l-740 3 -65 23 c-155 56 -275 174 -332 327
-21 56 -23 79 -26 335 -4 304 -1 318 59 354 58 34 141 19 176 -33 16 -23 19
-57 23 -281 5 -231 7 -259 26 -300 30 -65 68 -105 126 -134 l52 -26 730 0
c713 0 732 1 776 21 55 25 105 71 133 124 21 38 22 54 25 360 2 296 1 323 -16
354 -28 53 -72 71 -169 71 l-81 0 -4 -187 c-3 -182 -4 -190 -31 -245 -60 -122
-168 -205 -301 -229 -37 -6 -175 -9 -370 -7 -290 3 -315 5 -364 25 -107 43
-199 137 -238 243 -25 68 -31 277 -10 360 30 116 103 207 207 260 85 43 152
50 517 50 l334 0 -4 153 c-3 166 -10 188 -65 224 -24 16 -63 19 -345 23 l-318
5 -31 31 c-59 60 -48 160 24 205 30 19 48 19 367 17 l335 -3 67 -32z"/>
<path d="M2243 2405 c-57 -24 -73 -65 -73 -183 0 -117 12 -151 63 -182 30 -19
52 -20 333 -20 296 0 302 0 335 23 59 39 69 73 69 235 l0 142 -347 0 c-276 -1
-355 -4 -380 -15z"/>
</g>
</svg>